<?xml version="1.0" encoding="iso-8859-1"?>
<!-- Generator: Adobe Illustrator 17.1.0, SVG Export Plug-In . SVG Version: 6.00 Build 0)  -->
<!DOCTYPE svg PUBLIC "-//W3C//DTD SVG 1.1//EN" "http://www.w3.org/Graphics/SVG/1.1/DTD/svg11.dtd">
<svg version="1.1" id="Capa_1" xmlns="http://www.w3.org/2000/svg" xmlns:xlink="http://www.w3.org/1999/xlink" x="0px" y="0px"
	 viewBox="0 0 215.227 215.227" style="enable-background:new 0 0 215.227 215.227;" xml:space="preserve">
<path d="M213.227,209.49H196.79c-0.67,0-1.296-0.336-1.667-0.895c-0.371-0.559-0.437-1.266-0.176-1.884l3.989-9.447V42.561
	c-0.733-0.297-1.25-1.016-1.25-1.854v-9.653c0-0.771-0.626-1.396-1.396-1.396h-25.896c-4.136,0-7.5-3.364-7.5-7.5s3.364-7.5,7.5-7.5
	h33.375c4.641,0,8.417,3.775,8.417,8.417v17.633c0,0.839-0.517,1.558-1.25,1.854v154.357l4.134,9.794
	c0.26,0.617,0.194,1.324-0.176,1.883S213.897,209.49,213.227,209.49z M199.805,205.49h10.407l-2.603-6.166h-5.201L199.805,205.49z
	 M202.936,195.324h4V42.707h-4V195.324z M201.686,38.707h6.5V23.074c0-2.436-1.981-4.417-4.417-4.417h-33.375
	c-1.93,0-3.5,1.57-3.5,3.5s1.57,3.5,3.5,3.5h25.896c2.976,0,5.396,2.421,5.396,5.396V38.707z M116.522,202.103
	c-0.068,0-0.137-0.004-0.206-0.011c-0.345-0.036-8.58-0.938-19.071-6.281c-6.256-3.188-9.729-6.868-11.569-9.478
	c-1.565,1.845-3.9,3.018-6.504,3.018h-1.272c-2.604,0-4.938-1.173-6.504-3.018c-1.841,2.609-5.313,6.29-11.569,9.478
	c-10.49,5.344-18.725,6.245-19.07,6.281c-0.532,0.053-1.06-0.104-1.471-0.44c-0.333-0.272-2.064-1.841-3.386-5.966
	c-1.657-5.176,1.177-14.049,1.299-14.424c0.196-0.605-0.685-2.729-1.269-4.135c-0.9-2.168-1.92-4.626-2.055-7.08
	c-0.255-4.661,2.367-14.654,2.479-15.077c0.22-0.831,0.946-1.43,1.805-1.485c0.413-0.022,10.203-0.607,20.64,3.239
	c6.508,2.4,10.346,6.274,12.407,9.067c1.563-1.979,3.983-3.252,6.695-3.252h1.272c2.712,0,5.132,1.272,6.695,3.252
	c2.061-2.793,5.899-6.667,12.407-9.067c10.436-3.847,20.228-3.263,20.639-3.239c0.858,0.056,1.585,0.653,1.805,1.485
	c0.112,0.423,2.734,10.416,2.479,15.077c-0.135,2.454-1.155,4.912-2.055,7.081c-0.583,1.405-1.465,3.528-1.269,4.134
	c0.122,0.375,2.956,9.248,1.299,14.423c-1.321,4.126-3.052,5.694-3.386,5.967C117.429,201.945,116.981,202.103,116.522,202.103z
	 M87.7,181.906c0.534,1.184,3.18,6.173,11.36,10.341c7.782,3.964,14.262,5.323,16.667,5.722c0.423-0.604,1.063-1.714,1.636-3.503
	c0.885-2.765-0.225-8.664-1.295-11.971c-0.65-2.009,0.291-4.274,1.379-6.899c0.815-1.964,1.658-3.996,1.755-5.767
	c0.158-2.867-1.154-8.982-1.984-12.384c-0.014,0-0.028,0-0.043,0c-3.008,0-10.17,0.324-17.517,3.033
	c-8.076,2.978-11.269,8.519-11.958,9.9V181.906z M39.854,157.443c-0.83,3.401-2.142,9.519-1.985,12.386
	c0.097,1.771,0.94,3.802,1.755,5.767c1.089,2.624,2.03,4.891,1.379,6.899c-1.071,3.307-2.18,9.206-1.295,11.971
	c0.57,1.78,1.207,2.888,1.638,3.501c2.414-0.404,8.921-1.775,16.665-5.72c8.181-4.168,10.827-9.158,11.361-10.341v-11.529
	c-0.7-1.412-3.868-6.916-11.958-9.898C50.005,157.746,42.804,157.415,39.854,157.443z M73.372,180.823
	c0,2.497,2.031,4.528,4.528,4.528h1.272c2.497,0,4.528-2.031,4.528-4.528v-9.755c0-2.497-2.031-4.528-4.528-4.528h-1.272
	c-2.497,0-4.528,2.031-4.528,4.528V180.823z M107.101,184.246c-0.099,0-0.2-0.007-0.301-0.022
	c-6.407-0.968-17.157-3.359-17.157-8.498c0-5.074,10.696-7.92,17.072-9.165c1.084-0.213,2.134,0.495,2.346,1.579
	c0.211,1.084-0.496,2.135-1.579,2.347c-6.67,1.305-13.168,3.773-13.82,5.232c0.707,1.407,7.165,3.555,13.735,4.55
	c1.092,0.165,1.843,1.185,1.678,2.276C108.926,183.536,108.073,184.246,107.101,184.246z M49.971,184.246
	c-0.973,0-1.825-0.71-1.975-1.701c-0.165-1.092,0.586-2.111,1.678-2.276c6.571-0.995,13.029-3.143,13.735-4.55
	c-0.651-1.462-7.15-3.931-13.819-5.232c-1.084-0.212-1.792-1.262-1.58-2.346c0.212-1.085,1.259-1.793,2.346-1.58
	c6.376,1.245,17.072,4.091,17.072,9.165c0,5.139-10.75,7.53-17.157,8.498C50.171,184.239,50.07,184.246,49.971,184.246z
	 M106.15,127.098c-8.984,0-16.366-6.992-16.99-15.82c-6.294-3.223-13.842-3.221-20.131,0c-0.624,8.828-8.006,15.82-16.99,15.82
	c-9.392,0-17.033-7.641-17.033-17.032c0-9.393,7.641-17.033,17.033-17.033c8.336,0,15.292,6.02,16.751,13.94
	c6.553-2.81,14.049-2.814,20.608,0.001c1.459-7.921,8.416-13.941,16.751-13.941c9.392,0,17.033,7.641,17.033,17.033
	C123.183,119.458,115.542,127.098,106.15,127.098z M93.118,110.102c0.02,7.169,5.859,12.996,13.033,12.996
	c7.186,0,13.033-5.847,13.033-13.032c0-7.187-5.847-13.033-13.033-13.033c-7.175,0-13.015,5.829-13.033,13
	C93.118,110.056,93.118,110.079,93.118,110.102z M52.039,97.033c-7.186,0-13.033,5.847-13.033,13.033
	c0,7.186,5.847,13.032,13.033,13.032c7.174,0,13.014-5.827,13.033-12.997c0-0.022,0-0.045,0-0.067
	C65.055,102.862,59.215,97.033,52.039,97.033z M138.586,75.676H18.485c-12.363,0-18.032-10.854-18.267-11.316
	c-0.501-0.984-0.109-2.188,0.875-2.689c0.984-0.501,2.185-0.11,2.688,0.871c0.203,0.392,4.844,9.135,14.705,9.135h12.717V53.071
	c0-26.1,21.234-47.334,47.333-47.334c26.1,0,47.334,21.234,47.334,47.334v18.605h12.716c9.938,0,14.656-9.04,14.703-9.131
	c0.502-0.985,1.706-1.377,2.689-0.875c0.984,0.501,1.376,1.705,0.875,2.689C156.618,64.822,150.949,75.676,138.586,75.676z
	 M73.947,71.676h47.922V59.626H35.202v12.051H73.947z M35.202,55.626h86.667v-2.555c0-23.895-19.439-43.334-43.334-43.334
	c-23.894,0-43.333,19.439-43.333,43.334V55.626z"/>
<g>
</g>
<g>
</g>
<g>
</g>
<g>
</g>
<g>
</g>
<g>
</g>
<g>
</g>
<g>
</g>
<g>
</g>
<g>
</g>
<g>
</g>
<g>
</g>
<g>
</g>
<g>
</g>
<g>
</g>
</svg>
